<svg width="27" height="27" viewBox="0 0 27 27" fill="none" xmlns="http://www.w3.org/2000/svg">
<path d="M24.3665 2.60219H15.6642V1.73479C15.6642 0.780656 14.881 0 13.9237 0H1.74047C0.78321 0 0 0.780656 0 1.73479V11.2761C0 16.0468 4.56873 16.0468 6.09164 16.0468C6.35271 16.0468 6.52675 15.8733 6.52675 15.6131C6.52675 15.3529 6.35271 15.1794 6.09164 15.1794C5.13438 15.1794 4.35117 14.3988 4.35117 13.4446C4.35117 13.4013 4.35117 13.3145 4.35117 13.2711C4.4817 12.3604 5.26491 11.7098 6.17866 11.7098H12.1833V12.5772H8.26722C8.00615 12.5772 7.8321 12.7507 7.8321 13.0109C7.8321 14.0084 8.22371 14.9626 8.87638 15.6565C8.74585 16.0902 8.70234 16.4805 8.70234 16.9142C8.70234 18.649 9.74662 20.2103 11.313 20.9042C11.313 21.1644 11.1825 21.6849 10.0077 21.6849C8.78936 21.6849 7.8321 22.639 7.8321 23.8534V26.0219H8.70234V23.8534C8.70234 23.1595 9.22448 22.5956 9.92067 22.5523L12.0527 23.5932C12.2268 23.6799 12.4443 23.7666 12.6184 23.81V26.0219H13.4886V23.81C13.7062 23.7666 13.8802 23.7233 14.0543 23.6365L16.1863 22.5956C16.8825 22.639 17.4047 23.2028 17.4047 23.8967V26.0652H18.2749V23.8967C18.2749 22.6824 17.3177 21.7283 16.0993 21.7283C14.9245 21.7283 14.794 21.2078 14.794 20.9476C16.4474 20.2537 17.4482 18.6056 17.4047 16.8275C17.4047 16.7407 17.4047 16.5673 17.4047 16.5239C17.4047 15.9167 17.2741 15.3095 16.9696 14.7891H19.8848C20.7986 14.7891 21.5818 15.4396 21.7123 16.3504C21.7994 17.3045 21.1032 18.1719 20.1459 18.2587C20.1024 18.2587 20.0154 18.2587 19.9719 18.2587C19.7108 18.2587 19.5367 18.4322 19.5367 18.6924C19.5367 18.9526 19.7108 19.1261 19.9719 19.1261C21.4948 19.1261 26.0635 19.1261 26.0635 14.3554V4.33698C26.107 3.38284 25.3238 2.60219 24.3665 2.60219ZM6.17866 10.8424C4.8298 10.8424 3.65498 11.8399 3.48093 13.1844C3.43742 13.835 3.61147 14.4855 4.00308 15.0059C1.871 14.5722 0.870234 13.4013 0.870234 11.2761V1.73479C0.870234 1.25772 1.26184 0.867395 1.74047 0.867395H13.9237C14.4024 0.867395 14.794 1.25772 14.794 1.73479V9.97505C14.794 10.4521 14.4024 10.8424 13.9237 10.8424H6.17866ZM8.74585 13.4446H13.4886C15.0115 13.4446 16.2734 14.5722 16.4909 16.0468H11.7482C10.2252 16.0468 8.96341 14.9192 8.74585 13.4446ZM14.2283 20.1669C14.0543 20.2103 13.9237 20.3838 13.9237 20.5573V20.8175C13.8802 21.4247 14.2283 22.0318 14.794 22.2921L13.6627 22.8559C13.2711 23.0293 12.7924 23.0293 12.4008 22.8559L11.313 22.2921C11.8787 22.0318 12.2268 21.4247 12.1833 20.8175V20.6006C12.1833 20.4272 12.0527 20.2537 11.8787 20.2103C10.4863 19.6899 9.57257 18.3888 9.57257 16.9142C9.57257 16.6974 9.57257 16.4805 9.61608 16.307C10.2252 16.6974 10.9649 16.9142 11.7482 16.9142H16.5344C16.5344 18.3888 15.6207 19.6899 14.2283 20.1669ZM25.2368 14.312C25.2368 16.4371 24.236 17.6081 22.1039 18.0418C22.4955 17.5214 22.6696 16.8708 22.6261 16.2203C22.452 14.8758 21.3207 13.8783 19.9284 13.8783H16.4039C15.6642 13.0543 14.6199 12.5772 13.4886 12.5772H13.0535V11.7098H13.9237C14.881 11.7098 15.6642 10.9292 15.6642 9.97505V3.46958H24.3665C24.8452 3.46958 25.2368 3.85991 25.2368 4.33698V14.312Z" fill="#CD882D"/>
<path d="M10.0077 4.77026H9.57259C9.31152 4.77026 9.13748 4.59678 9.13748 4.33656V3.03547C9.13748 2.29818 8.57182 1.73438 7.83213 1.73438C7.09243 1.73438 6.52678 2.29818 6.52678 3.03547V4.33656C6.52678 4.59678 6.35273 4.77026 6.09166 4.77026C6.09166 4.51004 5.91761 4.33656 5.65654 4.33656H3.91607C3.655 4.33656 3.48096 4.51004 3.48096 4.77026V9.54093C3.48096 9.80115 3.655 9.97463 3.91607 9.97463H5.65654C5.91761 9.97463 6.09166 9.80115 6.09166 9.54093H10.0077C10.7474 9.54093 11.3131 8.97713 11.3131 8.23984V6.07135C11.3131 5.33407 10.7474 4.77026 10.0077 4.77026ZM5.22142 9.10723H4.35119V5.20396H5.22142V9.10723ZM10.4428 8.23984C10.4428 8.50006 10.2688 8.67354 10.0077 8.67354H6.09166V5.63765C6.83136 5.63765 7.39701 5.07385 7.39701 4.33656V3.03547C7.39701 2.77525 7.57106 2.60177 7.83213 2.60177C8.0932 2.60177 8.26724 2.77525 8.26724 3.03547V4.33656C8.26724 5.07385 8.83289 5.63765 9.57259 5.63765H10.0077C10.2688 5.63765 10.4428 5.81113 10.4428 6.07135V8.23984Z" fill="#CD882D"/>
<path d="M23.9317 4.33789H22.1912C21.9301 4.33789 21.7561 4.51137 21.7561 4.77159H17.84C17.1003 4.77159 16.5347 5.3354 16.5347 6.07268V8.24117C16.5347 8.97846 17.1003 9.54226 17.84 9.54226H18.2751C18.5362 9.54226 18.7103 9.71574 18.7103 9.97596V11.2771C18.7103 12.0143 19.2759 12.5781 20.0156 12.5781C20.7553 12.5781 21.321 12.0143 21.321 11.2771V9.97596C21.321 9.71574 21.495 9.54226 21.7561 9.54226C21.7561 9.80248 21.9301 9.97596 22.1912 9.97596H23.9317C24.1927 9.97596 24.3668 9.80248 24.3668 9.54226V4.77159C24.3668 4.51137 24.1927 4.33789 23.9317 4.33789ZM21.7561 8.67487C21.0164 8.67487 20.4507 9.23867 20.4507 9.97596V11.2771C20.4507 11.5373 20.2767 11.7108 20.0156 11.7108C19.7545 11.7108 19.5805 11.5373 19.5805 11.2771V9.97596C19.5805 9.23867 19.0148 8.67487 18.2751 8.67487H17.84C17.5789 8.67487 17.4049 8.50139 17.4049 8.24117V6.07268C17.4049 5.81246 17.5789 5.63898 17.84 5.63898H21.7561V8.67487ZM23.4965 9.10856H22.6263V5.20529H23.4965V9.10856Z" fill="#CD882D"/>
<path d="M17.8396 11.2754H16.0991V12.1428H17.8396V11.2754Z" fill="#CD882D"/>
<path d="M11.7482 2.16807V1.73438H10.878V2.16807H10.4429V3.03547H10.878V3.46917H11.7482V3.03547H12.1833V2.16807H11.7482Z" fill="#CD882D"/>
</svg>
