<svg width="27" height="27" viewBox="0 0 27 27" fill="none" xmlns="http://www.w3.org/2000/svg">
<path d="M19.9727 11.5086C19.9727 10.6834 19.3014 10.0122 18.4762 10.0122H15.7261C16.3942 9.26115 16.8309 8.40594 16.9153 7.63869C16.9668 7.17008 16.822 6.70493 16.5179 6.36246C16.24 6.04943 15.86 5.87496 15.4478 5.87114C15.4431 5.87109 15.4383 5.87109 15.4335 5.87109C15.0349 5.87109 14.6607 6.02463 14.3783 6.30443C14.0959 6.58427 13.9396 6.95708 13.9377 7.35493C13.9232 7.44203 13.77 7.74234 13.3951 8.09891C13.0881 8.39092 12.5578 8.79233 11.7749 9.04652C11.4679 9.1462 11.1874 9.32973 10.9411 9.59201C10.8118 9.72956 10.6183 9.91955 10.3786 10.1103C10.261 10.0479 10.1273 10.0123 9.98521 10.0123H7.37324C6.90814 10.0123 6.52979 10.3907 6.52979 10.8558V17.821C6.52979 18.2861 6.90814 18.6644 7.37324 18.6644H9.98521C10.3023 18.6644 10.5787 18.4884 10.7228 18.2291H17.3879C18.0931 18.2291 18.6667 17.6555 18.6667 16.9503C18.6667 16.7133 18.6019 16.4911 18.489 16.3005C18.8564 16.0756 19.102 15.6705 19.102 15.209C19.102 14.9719 19.0372 14.7498 18.9243 14.5592C19.2917 14.3343 19.5373 13.9291 19.5373 13.4677C19.5373 13.2008 19.4552 12.9528 19.3148 12.7475C19.7115 12.4781 19.9727 12.0233 19.9727 11.5086ZM18.4762 12.1888H18.2586C18.0332 12.1888 17.8504 12.3715 17.8504 12.5969C17.8504 12.8223 18.0331 13.0051 18.2586 13.0051C18.5136 13.0051 18.7211 13.2126 18.7211 13.4676C18.7211 13.7227 18.5136 13.9302 18.2586 13.9302H17.8232C17.5979 13.9302 17.4151 14.1129 17.4151 14.3383C17.4151 14.5637 17.5978 14.7465 17.8232 14.7465C18.0783 14.7465 18.2858 14.954 18.2858 15.209C18.2858 15.4641 18.0783 15.6716 17.8232 15.6716H17.3879C17.1626 15.6716 16.9798 15.8543 16.9798 16.0797C16.9798 16.3051 17.1625 16.4878 17.3879 16.4878C17.643 16.4878 17.8505 16.6953 17.8505 16.9504C17.8505 17.2055 17.643 17.413 17.3879 17.413H10.8287V13.4678C10.8287 13.2424 10.6459 13.0597 10.4205 13.0597C10.1951 13.0597 10.0124 13.2424 10.0124 13.4678V17.821C10.0124 17.8361 10.0002 17.8482 9.98521 17.8482H7.37324C7.35822 17.8482 7.34605 17.8361 7.34605 17.821V10.8556C7.34605 10.8406 7.35822 10.8284 7.37324 10.8284H9.98521C10.0002 10.8284 10.0124 10.8406 10.0124 10.8556V11.7263C10.0124 11.9517 10.1951 12.1344 10.4205 12.1344C10.6459 12.1344 10.8287 11.9517 10.8287 11.7263V10.8556C10.8287 10.8358 10.827 10.8164 10.8257 10.797C11.1317 10.5601 11.3764 10.3206 11.536 10.1507C11.6871 9.98976 11.8522 9.87949 12.0269 9.82283C12.9875 9.51096 13.634 9.0088 14.0071 8.64246C14.4748 8.18331 14.7539 7.70467 14.7539 7.36201C14.7539 7.18097 14.8245 7.01129 14.9528 6.88423C15.0826 6.75558 15.2545 6.68762 15.4403 6.68736C15.669 6.6895 15.8206 6.80654 15.9075 6.90439C16.0564 7.07213 16.1297 7.31334 16.1038 7.5495C16.0147 8.36043 15.3661 9.36282 14.4516 10.1031C14.3173 10.2119 14.266 10.3936 14.3237 10.5565C14.3814 10.7195 14.5355 10.8284 14.7084 10.8284H18.4761C18.8512 10.8284 19.1563 11.1335 19.1563 11.5086C19.1563 11.8837 18.8513 12.1888 18.4762 12.1888Z" fill="#CD882D"/>
<path d="M8.67932 16.1016C8.45394 16.1016 8.26904 16.2865 8.26904 16.5118C8.26904 16.7372 8.45394 16.9221 8.67932 16.9221C8.90469 16.9221 9.08959 16.7372 9.08959 16.5118C9.08964 16.2865 8.90474 16.1016 8.67932 16.1016Z" fill="#CD882D"/>
<path d="M25.3377 13.0326L26.0388 11.1773C26.0899 11.0424 26.0658 10.8905 25.9756 10.7779L24.7355 9.23003L24.829 7.24892C24.8358 7.10484 24.7659 6.96775 24.6454 6.88858L22.9877 5.7997L22.4645 3.88665C22.4264 3.74747 22.3176 3.63873 22.1785 3.6007L20.2655 3.07746L19.1766 1.41982C19.0974 1.29922 18.9603 1.22968 18.8162 1.23625L16.8351 1.32972L15.2873 0.0896311C15.1747 -0.000579035 15.0228 -0.0246588 14.8878 0.0263516L13.0326 0.727466L11.1774 0.0264025C11.0423 -0.0246588 10.8905 -0.000579041 10.7779 0.089682L9.2301 1.32977L7.24899 1.2363C7.10421 1.22948 6.96782 1.29932 6.88866 1.41987L5.79983 3.07756L3.88679 3.6008C3.7476 3.63888 3.63886 3.74762 3.60083 3.88676L3.07759 5.7998L1.41991 6.88864C1.2993 6.96785 1.22951 7.1049 1.23633 7.24897L1.3298 9.23008L0.0897165 10.7779C-0.000493531 10.8905 -0.0245733 11.0424 0.0264371 11.1774L0.727499 13.0326L0.0263862 14.8878C-0.0246751 15.0228 -0.000595347 15.1746 0.0896656 15.2873L1.32975 16.8351L1.23628 18.8162C1.22946 18.9603 1.2993 19.0974 1.41986 19.1766L3.07754 20.2654L3.60078 22.1785C3.63886 22.3177 3.7476 22.4264 3.88673 22.4644L5.79978 22.9877L6.88861 24.6454C6.96782 24.766 7.10512 24.8353 7.24894 24.829L9.23005 24.7355L10.7779 25.9756C10.8905 26.0658 11.0424 26.0899 11.1774 26.0388L13.0326 25.3377L14.8879 26.0388C14.9347 26.0565 14.9835 26.0652 15.0321 26.0652C15.1235 26.0652 15.2138 26.0345 15.2873 25.9756L16.8351 24.7355L18.8162 24.829C18.9608 24.8354 19.0974 24.7659 19.1766 24.6454L20.2655 22.9877L22.1785 22.4644C22.3177 22.4264 22.4264 22.3176 22.4645 22.1785L22.9877 20.2654L24.6454 19.1766C24.766 19.0973 24.8358 18.9603 24.829 18.8162L24.7355 16.8351L25.9756 15.2873C26.0658 15.1747 26.0899 15.0228 26.0388 14.8878L25.3377 13.0326ZM24.5197 13.1769L25.193 14.9586L24.002 16.4451C23.9399 16.5226 23.9082 16.6202 23.9129 16.7195L24.0027 18.6221L22.4107 19.6678C22.3277 19.7224 22.2673 19.8054 22.2411 19.9013L21.7385 21.7385L19.9013 22.2411C19.8054 22.2673 19.7225 22.3276 19.6678 22.4107L18.6221 24.0027L16.7195 23.9128C16.6202 23.9083 16.5227 23.9399 16.4451 24.002L14.9586 25.193L13.1769 24.5197C13.1304 24.5021 13.0815 24.4934 13.0326 24.4934C12.9837 24.4934 12.9348 24.5022 12.8883 24.5197L11.1066 25.193L9.62011 24.002C9.54258 23.9399 9.44483 23.9083 9.34571 23.9128L7.44311 24.0027L6.39739 22.4107C6.34287 22.3277 6.25984 22.2673 6.16393 22.2411L4.32669 21.7385L3.82417 19.9013C3.79795 19.8054 3.73762 19.7225 3.65454 19.6678L2.06258 18.6221L2.15238 16.7195C2.15706 16.6202 2.12535 16.5226 2.06319 16.4451L0.872232 14.9586L1.5456 13.1769C1.58073 13.0839 1.58073 12.9813 1.5456 12.8883L0.872232 11.1066L2.06319 9.62009C2.12535 9.54255 2.15706 9.44496 2.15238 9.34569L2.06258 7.44308L3.65454 6.39737C3.73757 6.34284 3.79795 6.25981 3.82417 6.1639L4.32669 4.32666L6.16393 3.82414C6.25979 3.79792 6.34277 3.73759 6.39739 3.65451L7.44311 2.06255L9.34571 2.15235C9.44488 2.15698 9.54258 2.12532 9.62011 2.06316L11.1066 0.872199L12.8883 1.54557C12.9814 1.58069 13.0839 1.58069 13.1769 1.54557L14.9586 0.872199L16.4451 2.06316C16.5227 2.12537 16.6203 2.15703 16.7195 2.15235L18.6221 2.06255L19.6678 3.65451C19.7224 3.73754 19.8054 3.79792 19.9013 3.82414L21.7385 4.32666L22.2411 6.1639C22.2673 6.25976 22.3276 6.34274 22.4107 6.39737L24.0027 7.44308L23.9129 9.34569C23.9082 9.44501 23.9399 9.54255 24.002 9.62009L25.193 11.1066L24.5196 12.8883C24.4846 12.9813 24.4846 13.0839 24.5197 13.1769Z" fill="#CD882D"/>
<path d="M20.7016 5.98584C20.6001 5.87527 20.4947 5.76531 20.3884 5.65901C20.2821 5.55271 20.1721 5.44733 20.0616 5.34577C19.8956 5.19335 19.6374 5.20434 19.4849 5.37041C19.3325 5.53642 19.3435 5.79463 19.5096 5.94705C19.6115 6.04072 19.713 6.13796 19.8112 6.23611C19.9093 6.33421 20.0066 6.43577 20.1003 6.53779C20.1808 6.62546 20.2908 6.6699 20.4011 6.6699C20.4997 6.6699 20.5986 6.63437 20.6769 6.56243C20.843 6.41006 20.8541 6.15185 20.7016 5.98584Z" fill="#CD882D"/>
<path d="M18.6122 4.23207C16.644 2.97819 14.2744 2.42094 11.9401 2.66261C9.57161 2.90799 7.33825 3.97208 5.65134 5.65894C3.79486 7.51542 2.71396 9.98164 2.60777 12.6033C2.50224 15.2095 3.36544 17.7399 5.03845 19.7282C5.11914 19.8241 5.2346 19.8735 5.35098 19.8735C5.44373 19.8735 5.537 19.842 5.61351 19.7777C5.78594 19.6326 5.80814 19.3751 5.66305 19.2027C4.12149 17.3705 3.32609 15.0386 3.42333 12.6364C3.52117 10.2202 4.51735 7.94718 6.22844 6.23614C7.78319 4.68134 9.84152 3.70058 12.0242 3.4745C14.1763 3.25152 16.3601 3.76514 18.1735 4.92046C18.3637 5.04157 18.6159 4.98567 18.737 4.79558C18.8581 4.60543 18.8022 4.35318 18.6122 4.23207Z" fill="#CD882D"/>
<path d="M21.8152 7.435C21.6941 7.24486 21.4417 7.18896 21.2517 7.31007C21.0616 7.43118 21.0057 7.68349 21.1268 7.87353C22.2822 9.687 22.7957 11.8709 22.5728 14.0229C22.3467 16.2055 21.366 18.2638 19.8112 19.8187C18.1001 21.5297 15.8272 22.526 13.411 22.6238C11.0092 22.7214 8.67679 21.9257 6.8447 20.3842C6.67227 20.239 6.41482 20.2612 6.26968 20.4337C6.12454 20.6061 6.14674 20.8636 6.31922 21.0087C8.19881 22.5902 10.5625 23.4481 13.0171 23.4481C13.159 23.4481 13.3016 23.4452 13.4441 23.4394C16.0658 23.3333 18.5319 22.2524 20.3885 20.3959C22.0754 18.709 23.1395 16.4756 23.3848 14.107C23.6265 11.7726 23.0691 9.40308 21.8152 7.435Z" fill="#CD882D"/>
</svg>
